<?xml version="1.0" encoding="UTF-8"?>
<svg xmlns="http://www.w3.org/2000/svg" version="1.1" viewBox="0 0 24 24">
  <defs>
    <style>
      .cls-1 {
        fill: none;
      }

      .cls-2 {
        fill: #535f94;
      }
    </style>
  </defs>
  <!-- Generator: Adobe Illustrator 28.7.1, SVG Export Plug-In . SVG Version: 1.2.0 Build 142)  -->
  <g>
    <g id="Layer_1">
      <rect class="cls-1" width="24" height="24"/>
      <path class="cls-2" d="M21,10.1h-6.8l2.7-2.8c-2.7-2.7-7.1-2.8-9.9,0-2.7,2.7-2.7,7.1,0,9.8,2.7,2.7,7.2,2.7,9.9,0,1.4-1.3,2-2.9,2-4.9h2c0,2-.9,4.6-2.6,6.3-3.5,3.5-9.2,3.5-12.7,0-3.5-3.5-3.5-9.1,0-12.6,3.5-3.5,9.1-3.5,12.7,0l2.7-2.8v7.1ZM12.5,8v4.2l3.5,2.1-.7,1.2-4.3-2.5v-5h1.5Z"/>
    </g>
  </g>
</svg>