<?xml version="1.0" encoding="UTF-8"?>
<svg xmlns="http://www.w3.org/2000/svg" version="1.1" viewBox="0 0 24 24">
  <defs>
    <style>
      .cls-1 {
        fill: none;
      }

      .cls-2 {
        fill: #535f94;
      }
    </style>
  </defs>
  <!-- Generator: Adobe Illustrator 28.7.1, SVG Export Plug-In . SVG Version: 1.2.0 Build 142)  -->
  <g>
    <g id="Layer_1">
      <path class="cls-1" d="M0,0h24v24H0V0Z"/>
      <g>
        <circle class="cls-2" cx="10" cy="8" r="4"/>
        <path class="cls-2" d="M10.7,13c-.2,0-.4,0-.7,0-2.4,0-4.7.7-6.6,1.8-.9.5-1.4,1.5-1.4,2.5v2.6h9.3c-.8-1.1-1.3-2.5-1.3-4s.2-2.1.7-3Z"/>
        <path class="cls-2" d="M20.8,16c0-.2,0-.4,0-.6l1.1-1-1-1.7-1.5.5c-.3-.3-.7-.5-1.1-.6l-.3-1.5h-2l-.3,1.5c-.4.1-.8.4-1.1.6l-1.4-.5-1,1.7,1.1,1c0,.2,0,.4,0,.6s0,.4,0,.6l-1.1,1,1,1.7,1.4-.5c.3.3.7.5,1.1.6l.3,1.5h2l.3-1.5c.4-.1.8-.4,1.1-.6l1.5.5,1-1.7-1.1-1c0-.2,0-.4,0-.6ZM17,18c-1.1,0-2-.9-2-2s.9-2,2-2,2,.9,2,2-.9,2-2,2Z"/>
      </g>
    </g>
  </g>
</svg>