<?xml version="1.0" encoding="UTF-8"?>
<svg xmlns="http://www.w3.org/2000/svg" version="1.1" viewBox="0 0 24 24">
  <defs>
    <style>
      .cls-1 {
        fill: none;
      }

      .cls-2 {
        fill: #535f94;
      }
    </style>
  </defs>
  <!-- Generator: Adobe Illustrator 28.7.1, SVG Export Plug-In . SVG Version: 1.2.0 Build 142)  -->
  <g>
    <g id="Layer_1">
      <path class="cls-1" d="M0,0h24v24H0V0Z"/>
      <path class="cls-2" d="M19,14V6c0-1.1-.9-2-2-2H3c-1.1,0-2,.9-2,2v8c0,1.1.9,2,2,2h14c1.1,0,2-.9,2-2ZM10,13c-1.7,0-3-1.3-3-3s1.3-3,3-3,3,1.3,3,3-1.3,3-3,3ZM23,7v11c0,1.1-.9,2-2,2H4v-2h17V7h2Z"/>
    </g>
  </g>
</svg>