<?xml version="1.0" encoding="UTF-8"?>
<svg xmlns="http://www.w3.org/2000/svg" version="1.1" viewBox="0 0 24 24">
  <defs>
    <style>
      .cls-1 {
        fill: none;
      }

      .cls-2 {
        fill: #535f94;
      }
    </style>
  </defs>
  <!-- Generator: Adobe Illustrator 28.7.1, SVG Export Plug-In . SVG Version: 1.2.0 Build 142)  -->
  <g>
    <g id="Layer_1">
      <path class="cls-1" d="M0,0h24v24H0V0Z"/>
      <path class="cls-2" d="M4,16v6h16v-6c0-1.1-.9-2-2-2H6c-1.1,0-2,.9-2,2ZM18,18H6v-2h12v2ZM12,2c-2.8,0-5,2.2-5,5l5,7,5-7c0-2.8-2.2-5-5-5ZM12,11l-3-4c0-1.7,1.3-3,3-3s3,1.3,3,3l-3,4Z"/>
    </g>
  </g>
</svg>